<svg width="25" height="25" viewBox="0 0 25 25" fill="none" xmlns="http://www.w3.org/2000/svg">
<g id="entypo-social:facebook-with-circle" clip-path="url(#clip0_792_271)">
<path id="Vector" d="M12.9009 1.42285C6.53846 1.42285 1.38086 6.58045 1.38086 12.9429C1.38086 19.3053 6.53846 24.4629 12.9009 24.4629C19.2633 24.4629 24.4209 19.3053 24.4209 12.9429C24.4209 6.58045 19.2633 1.42285 12.9009 1.42285ZM15.6297 9.38365H13.8981C13.6929 9.38365 13.4649 9.65365 13.4649 10.0125V11.2629H15.6309L15.3033 13.0461H13.4649V18.3993H11.4213V13.0461H9.56726V11.2629H11.4213V10.2141C11.4213 8.70925 12.4653 7.48645 13.8981 7.48645H15.6297V9.38365Z" fill="#000E30"/>
</g>
<defs>
<clipPath id="clip0_792_271">
<rect width="24" height="24" fill="white" transform="translate(0.900391 0.942871)"/>
</clipPath>
</defs>
</svg>
