<svg width="25" height="25" viewBox="0 0 25 25" fill="none" xmlns="http://www.w3.org/2000/svg">
<g id="Frame 1124124939">
<circle id="Ellipse 2" cx="12.5" cy="12.9429" r="12" fill="#000E30"/>
<path id="Vector" d="M9.60089 5.99183C8.85609 6.02697 8.34747 6.14583 7.90283 6.32055C7.44265 6.49989 7.05261 6.74055 6.66453 7.13003C6.27645 7.51951 6.03747 7.90983 5.85939 8.37071C5.68705 8.81633 5.57029 9.32537 5.53739 10.0706C5.50449 10.8158 5.49721 11.0553 5.50085 12.9563C5.50449 14.8572 5.51289 15.0955 5.54901 15.8422C5.58457 16.5869 5.70301 17.0954 5.87773 17.5401C6.05735 18.0003 6.29773 18.3902 6.68735 18.7784C7.07697 19.1667 7.46701 19.4051 7.92901 19.5834C8.37421 19.7555 8.88339 19.8728 9.62847 19.9054C10.3736 19.9381 10.6134 19.9456 12.5137 19.942C14.4141 19.9383 14.6533 19.9299 15.4 19.8945C16.1466 19.8591 16.6524 19.7398 17.0973 19.5659C17.5575 19.3859 17.9477 19.1459 18.3356 18.7562C18.7236 18.3664 18.9624 17.9758 19.1403 17.5147C19.3128 17.0695 19.43 16.5603 19.4623 15.8158C19.495 15.0686 19.5027 14.83 19.499 12.9294C19.4954 11.0287 19.4868 10.7905 19.4514 10.044C19.416 9.29751 19.2974 8.79057 19.1228 8.34551C18.9429 7.88533 18.7028 7.49571 18.3134 7.10721C17.9239 6.71871 17.533 6.48001 17.072 6.30249C16.6265 6.13015 16.1176 6.01269 15.3725 5.98049C14.6274 5.94829 14.3876 5.94003 12.4866 5.94367C10.5855 5.94731 10.3475 5.95543 9.60089 5.99183ZM9.68265 18.6461C9.00015 18.6165 8.62957 18.5031 8.38261 18.4081C8.05557 18.2821 7.82261 18.1298 7.57649 17.8861C7.33037 17.6423 7.17917 17.4085 7.05149 17.0822C6.95559 16.8352 6.84009 16.4651 6.80817 15.7826C6.77345 15.0449 6.76617 14.8234 6.76211 12.9546C6.75805 11.0857 6.76519 10.8645 6.79753 10.1266C6.82665 9.44465 6.94075 9.07365 7.03553 8.82683C7.16153 8.49937 7.31329 8.26683 7.55759 8.02085C7.80189 7.77487 8.03499 7.62339 8.36161 7.49571C8.60829 7.39939 8.97845 7.28487 9.66067 7.25239C10.3989 7.21739 10.6201 7.21039 12.4887 7.20633C14.3573 7.20227 14.579 7.20927 15.3175 7.24175C15.9994 7.27143 16.3706 7.38441 16.6171 7.47975C16.9443 7.60575 17.1771 7.75709 17.4231 8.00181C17.6691 8.24653 17.8207 8.47879 17.9484 8.80611C18.0448 9.05209 18.1594 9.42211 18.1916 10.1047C18.2267 10.843 18.2347 11.0643 18.238 12.9327C18.2414 14.8012 18.2348 15.0231 18.2025 15.7607C18.1727 16.4432 18.0596 16.814 17.9645 17.0612C17.8385 17.3881 17.6866 17.6212 17.4422 17.867C17.1977 18.1129 16.9649 18.2644 16.6381 18.392C16.3917 18.4882 16.0212 18.603 15.3395 18.6355C14.6013 18.6702 14.3801 18.6775 12.5108 18.6816C10.6415 18.6856 10.421 18.6781 9.68279 18.6461M15.3892 9.20161C15.3895 9.36776 15.439 9.53009 15.5316 9.66808C15.6241 9.80607 15.7555 9.91351 15.9091 9.97683C16.0627 10.0401 16.2316 10.0565 16.3945 10.0238C16.5574 9.99106 16.707 9.91079 16.8242 9.79309C16.9415 9.67539 17.0212 9.52555 17.0534 9.36254C17.0855 9.19952 17.0685 9.03064 17.0046 8.87727C16.9408 8.72389 16.8328 8.5929 16.6945 8.50086C16.5562 8.40882 16.3937 8.35988 16.2275 8.36021C16.0048 8.36065 15.7913 8.44954 15.6341 8.60733C15.4769 8.76511 15.3888 8.97887 15.3892 9.20161ZM8.90579 12.9498C8.90971 14.935 10.522 16.5407 12.5067 16.5369C14.4915 16.5331 16.0983 14.921 16.0945 12.9358C16.0907 10.9506 14.4781 9.34455 12.493 9.34847C10.508 9.35239 8.90201 10.9649 8.90579 12.9498ZM10.1666 12.9473C10.1657 12.4858 10.3017 12.0344 10.5573 11.6502C10.8129 11.2659 11.1768 10.9662 11.6028 10.7887C12.0288 10.6112 12.4979 10.5641 12.9507 10.6533C13.4035 10.7424 13.8197 10.9638 14.1467 11.2895C14.4737 11.6152 14.6967 12.0305 14.7876 12.4829C14.8786 12.9354 14.8333 13.4046 14.6575 13.8314C14.4818 14.2581 14.1834 14.6231 13.8002 14.8803C13.417 15.1374 12.9661 15.2752 12.5046 15.2761C12.1982 15.2767 11.8946 15.217 11.6113 15.1003C11.3279 14.9836 11.0704 14.8122 10.8532 14.596C10.6361 14.3797 10.4638 14.1228 10.3459 13.8399C10.2281 13.5571 10.1672 13.2537 10.1666 12.9473Z" fill="white"/>
</g>
</svg>
