<svg width="15" height="15" viewBox="0 0 15 15" fill="none" xmlns="http://www.w3.org/2000/svg">
<g id="Instagram svg" clip-path="url(#clip0_792_275)">
<path id="Vector" d="M4.60089 0.991827C3.85609 1.02697 3.34747 1.14583 2.90283 1.32055C2.44265 1.49989 2.05261 1.74055 1.66453 2.13003C1.27645 2.51951 1.03747 2.90983 0.859391 3.37071C0.687051 3.81633 0.570291 4.32537 0.537391 5.07059C0.504491 5.81581 0.497211 6.05535 0.500851 7.95627C0.504491 9.85719 0.512891 10.0955 0.549011 10.8422C0.584571 11.5869 0.703011 12.0954 0.877731 12.5401C1.05735 13.0003 1.29773 13.3902 1.68735 13.7784C2.07697 14.1667 2.46701 14.4051 2.92901 14.5834C3.37421 14.7555 3.88339 14.8728 4.62847 14.9054C5.37355 14.9381 5.61337 14.9456 7.51373 14.942C9.41409 14.9383 9.65335 14.9299 10.4 14.8945C11.1466 14.8591 11.6524 14.7398 12.0973 14.5659C12.5575 14.3859 12.9477 14.1459 13.3356 13.7562C13.7236 13.3664 13.9624 12.9758 14.1403 12.5147C14.3128 12.0695 14.43 11.5603 14.4623 10.8158C14.495 10.0686 14.5027 9.83003 14.499 7.92939C14.4954 6.02875 14.4868 5.79047 14.4514 5.04399C14.416 4.29751 14.2974 3.79057 14.1228 3.34551C13.9429 2.88533 13.7028 2.49571 13.3134 2.10721C12.9239 1.71871 12.533 1.48001 12.072 1.30249C11.6265 1.13015 11.1176 1.01269 10.3725 0.980487C9.62745 0.948287 9.38763 0.940027 7.48657 0.943667C5.58551 0.947307 5.34751 0.955427 4.60089 0.991827ZM4.68265 13.6461C4.00015 13.6165 3.62957 13.5031 3.38261 13.4081C3.05557 13.2821 2.82261 13.1298 2.57649 12.8861C2.33037 12.6423 2.17917 12.4085 2.05149 12.0822C1.95559 11.8352 1.84009 11.4651 1.80817 10.7826C1.77345 10.0449 1.76617 9.82345 1.76211 7.95459C1.75805 6.08573 1.76519 5.86453 1.79753 5.12659C1.82665 4.44465 1.94075 4.07365 2.03553 3.82683C2.16153 3.49937 2.31329 3.26683 2.55759 3.02085C2.80189 2.77487 3.03499 2.62339 3.36161 2.49571C3.60829 2.39939 3.97845 2.28487 4.66067 2.25239C5.39889 2.21739 5.62009 2.21039 7.48867 2.20633C9.35725 2.20227 9.57901 2.20927 10.3175 2.24175C10.9994 2.27143 11.3706 2.38441 11.6171 2.47975C11.9443 2.60575 12.1771 2.75709 12.4231 3.00181C12.6691 3.24653 12.8207 3.47879 12.9484 3.80611C13.0448 4.05209 13.1594 4.42211 13.1916 5.10475C13.2267 5.84297 13.2347 6.06431 13.238 7.93275C13.2414 9.80119 13.2348 10.0231 13.2025 10.7607C13.1727 11.4432 13.0596 11.814 12.9645 12.0612C12.8385 12.3881 12.6866 12.6212 12.4422 12.867C12.1977 13.1129 11.9649 13.2644 11.6381 13.392C11.3917 13.4882 11.0212 13.603 10.3395 13.6355C9.60127 13.6702 9.38007 13.6775 7.51079 13.6816C5.64151 13.6856 5.42101 13.6781 4.68279 13.6461M10.3892 4.20161C10.3895 4.36776 10.439 4.53009 10.5316 4.66808C10.6241 4.80607 10.7555 4.91351 10.9091 4.97683C11.0627 5.04014 11.2316 5.05648 11.3945 5.02377C11.5574 4.99106 11.707 4.91079 11.8242 4.79309C11.9415 4.67539 12.0212 4.52555 12.0534 4.36254C12.0855 4.19952 12.0685 4.03064 12.0046 3.87727C11.9408 3.72389 11.8328 3.5929 11.6945 3.50086C11.5562 3.40882 11.3937 3.35988 11.2275 3.36021C11.0048 3.36065 10.7913 3.44954 10.6341 3.60733C10.4769 3.76511 10.3888 3.97887 10.3892 4.20161ZM3.90579 7.94983C3.90971 9.93503 5.52195 11.5407 7.50673 11.5369C9.49151 11.5331 11.0983 9.92103 11.0945 7.93583C11.0907 5.95063 9.47807 4.34455 7.49301 4.34847C5.50795 4.35239 3.90201 5.96491 3.90579 7.94983ZM5.16663 7.94731C5.16572 7.48581 5.30168 7.0344 5.55731 6.65018C5.81295 6.26595 6.17678 5.96615 6.6028 5.7887C7.02881 5.61125 7.49789 5.56411 7.95069 5.65325C8.4035 5.74239 8.81971 5.9638 9.14668 6.28948C9.47366 6.61516 9.69671 7.03049 9.78764 7.48294C9.87857 7.93539 9.83329 8.40465 9.65753 8.83137C9.48177 9.25808 9.18342 9.6231 8.8002 9.88025C8.41699 10.1374 7.96613 10.2752 7.50463 10.2761C7.1982 10.2767 6.89464 10.217 6.61129 10.1003C6.32794 9.9836 6.07036 9.81224 5.85325 9.59599C5.63613 9.37973 5.46375 9.12283 5.34594 8.83995C5.22813 8.55706 5.1672 8.25374 5.16663 7.94731Z" fill="white"/>
</g>
<defs>
<clipPath id="clip0_792_275">
<rect width="14" height="14" fill="white" transform="translate(0.5 0.942871)"/>
</clipPath>
</defs>
</svg>
