<svg width="25" height="25" viewBox="0 0 25 25" fill="none" xmlns="http://www.w3.org/2000/svg">
<g id="Frame 1124124940">
<circle id="Ellipse 2" cx="12.0996" cy="12.9429" r="12" fill="#000E30"/>
<path id="mail" d="M7.29961 17.7428C6.96961 17.7428 6.68711 17.6253 6.45211 17.3903C6.21711 17.1553 6.09961 16.8728 6.09961 16.5428V9.34282C6.09961 9.01282 6.21711 8.73032 6.45211 8.49532C6.68711 8.26032 6.96961 8.14282 7.29961 8.14282H16.8996C17.2296 8.14282 17.5121 8.26032 17.7471 8.49532C17.9821 8.73032 18.0996 9.01282 18.0996 9.34282V16.5428C18.0996 16.8728 17.9821 17.1553 17.7471 17.3903C17.5121 17.6253 17.2296 17.7428 16.8996 17.7428H7.29961ZM12.0996 13.5428L7.29961 10.5428V16.5428H16.8996V10.5428L12.0996 13.5428ZM12.0996 12.3428L16.8996 9.34282H7.29961L12.0996 12.3428ZM7.29961 10.5428V9.34282V16.5428V10.5428Z" fill="white"/>
</g>
</svg>
