<svg width="24" height="24" viewBox="0 0 24 24" fill="none" xmlns="http://www.w3.org/2000/svg">
<g id="airport_shuttle">
<mask id="mask0_719_753" style="mask-type:alpha" maskUnits="userSpaceOnUse" x="0" y="0" width="24" height="24">
<rect id="Bounding box" width="24" height="24" fill="#D9D9D9"/>
</mask>
<g mask="url(#mask0_719_753)">
<path id="airport_shuttle_2" d="M6 19.0002C5.16667 19.0002 4.45833 18.7086 3.875 18.1252C3.29167 17.5419 3 16.8336 3 16.0002H1V7.00024C1 6.45024 1.19583 5.97941 1.5875 5.58774C1.97917 5.19608 2.45 5.00024 3 5.00024H17L23 11.0002V16.0002H21C21 16.8336 20.7083 17.5419 20.125 18.1252C19.5417 18.7086 18.8333 19.0002 18 19.0002C17.1667 19.0002 16.4583 18.7086 15.875 18.1252C15.2917 17.5419 15 16.8336 15 16.0002H9C9 16.8336 8.70833 17.5419 8.125 18.1252C7.54167 18.7086 6.83333 19.0002 6 19.0002ZM15 10.0002H19L16 7.00024H15V10.0002ZM9 10.0002H13V7.00024H9V10.0002ZM3 10.0002H7V7.00024H3V10.0002ZM6 17.2502C6.35 17.2502 6.64583 17.1294 6.8875 16.8877C7.12917 16.6461 7.25 16.3502 7.25 16.0002C7.25 15.6502 7.12917 15.3544 6.8875 15.1127C6.64583 14.8711 6.35 14.7502 6 14.7502C5.65 14.7502 5.35417 14.8711 5.1125 15.1127C4.87083 15.3544 4.75 15.6502 4.75 16.0002C4.75 16.3502 4.87083 16.6461 5.1125 16.8877C5.35417 17.1294 5.65 17.2502 6 17.2502ZM18 17.2502C18.35 17.2502 18.6458 17.1294 18.8875 16.8877C19.1292 16.6461 19.25 16.3502 19.25 16.0002C19.25 15.6502 19.1292 15.3544 18.8875 15.1127C18.6458 14.8711 18.35 14.7502 18 14.7502C17.65 14.7502 17.3542 14.8711 17.1125 15.1127C16.8708 15.3544 16.75 15.6502 16.75 16.0002C16.75 16.3502 16.8708 16.6461 17.1125 16.8877C17.3542 17.1294 17.65 17.2502 18 17.2502ZM3 14.0002H3.8C4.08333 13.7002 4.40833 13.4586 4.775 13.2752C5.14167 13.0919 5.55 13.0002 6 13.0002C6.45 13.0002 6.85833 13.0919 7.225 13.2752C7.59167 13.4586 7.91667 13.7002 8.2 14.0002H15.8C16.0833 13.7002 16.4083 13.4586 16.775 13.2752C17.1417 13.0919 17.55 13.0002 18 13.0002C18.45 13.0002 18.8583 13.0919 19.225 13.2752C19.5917 13.4586 19.9167 13.7002 20.2 14.0002H21V12.0002H3V14.0002Z" fill="#000E30"/>
</g>
</g>
</svg>
